<svg xmlns="http://www.w3.org/2000/svg" viewBox="0 0 500 500"><defs><filter id="shadow"><feGaussianBlur stdDeviation="8"/></filter></defs><ellipse cx="250" cy="450" rx="115" ry="15" fill="#685746" opacity=".12" filter="url(#shadow)"/><path d="M110 210 L250 443 L390 210 L340 370 L250 454 L162 372 Z" fill="#dcc6ac"/><path d="M145 220 L252 441 L358 218 L298 365 Z" fill="#f1dfc6"/><path d="M165 167 Q130 300 251 404" fill="none" stroke="#507d61" stroke-width="9" stroke-linecap="round"/><ellipse cx="193.0" cy="285.5" rx="13" ry="35" transform="rotate(-35 193.0 285.5)" fill="#80a685"/><path d="M250 122 Q215 300 251 404" fill="none" stroke="#507d61" stroke-width="9" stroke-linecap="round"/><ellipse cx="235.5" cy="263.0" rx="13" ry="35" transform="rotate(-35 235.5 263.0)" fill="#80a685"/><path d="M333 163 Q298 300 251 404" fill="none" stroke="#507d61" stroke-width="9" stroke-linecap="round"/><ellipse cx="277.0" cy="283.5" rx="13" ry="35" transform="rotate(-35 277.0 283.5)" fill="#80a685"/><path d="M205 220 Q170 300 251 404" fill="none" stroke="#507d61" stroke-width="9" stroke-linecap="round"/><ellipse cx="213.0" cy="312.0" rx="13" ry="35" transform="rotate(-35 213.0 312.0)" fill="#80a685"/><ellipse cx="188.0" cy="167.0" rx="19" ry="27" transform="rotate(-90 188.0 167.0)" fill="#d8756c" stroke="#ffffff" stroke-opacity=".14" stroke-width="3"/><ellipse cx="176.5" cy="186.9" rx="19" ry="27" transform="rotate(-30 176.5 186.9)" fill="#d8756c" stroke="#ffffff" stroke-opacity=".14" stroke-width="3"/><ellipse cx="153.5" cy="186.9" rx="19" ry="27" transform="rotate(30 153.5 186.9)" fill="#d8756c" stroke="#ffffff" stroke-opacity=".14" stroke-width="3"/><ellipse cx="142.0" cy="167.0" rx="19" ry="27" transform="rotate(90 142.0 167.0)" fill="#d8756c" stroke="#ffffff" stroke-opacity=".14" stroke-width="3"/><ellipse cx="153.5" cy="147.1" rx="19" ry="27" transform="rotate(150 153.5 147.1)" fill="#d8756c" stroke="#ffffff" stroke-opacity=".14" stroke-width="3"/><ellipse cx="176.5" cy="147.1" rx="19" ry="27" transform="rotate(210 176.5 147.1)" fill="#d8756c" stroke="#ffffff" stroke-opacity=".14" stroke-width="3"/><circle cx="165" cy="167" r="16" fill="#ecc471"/><circle cx="161" cy="162" r="4" fill="white" opacity=".3"/><ellipse cx="273.0" cy="122.0" rx="19" ry="27" transform="rotate(-90 273.0 122.0)" fill="#d8756c" stroke="#ffffff" stroke-opacity=".14" stroke-width="3"/><ellipse cx="261.5" cy="141.9" rx="19" ry="27" transform="rotate(-30 261.5 141.9)" fill="#d8756c" stroke="#ffffff" stroke-opacity=".14" stroke-width="3"/><ellipse cx="238.5" cy="141.9" rx="19" ry="27" transform="rotate(30 238.5 141.9)" fill="#d8756c" stroke="#ffffff" stroke-opacity=".14" stroke-width="3"/><ellipse cx="227.0" cy="122.0" rx="19" ry="27" transform="rotate(90 227.0 122.0)" fill="#d8756c" stroke="#ffffff" stroke-opacity=".14" stroke-width="3"/><ellipse cx="238.5" cy="102.1" rx="19" ry="27" transform="rotate(150 238.5 102.1)" fill="#d8756c" stroke="#ffffff" stroke-opacity=".14" stroke-width="3"/><ellipse cx="261.5" cy="102.1" rx="19" ry="27" transform="rotate(210 261.5 102.1)" fill="#d8756c" stroke="#ffffff" stroke-opacity=".14" stroke-width="3"/><circle cx="250" cy="122" r="16" fill="#ecc471"/><circle cx="246" cy="117" r="4" fill="white" opacity=".3"/><ellipse cx="356.0" cy="163.0" rx="19" ry="27" transform="rotate(-90 356.0 163.0)" fill="#d8756c" stroke="#ffffff" stroke-opacity=".14" stroke-width="3"/><ellipse cx="344.5" cy="182.9" rx="19" ry="27" transform="rotate(-30 344.5 182.9)" fill="#d8756c" stroke="#ffffff" stroke-opacity=".14" stroke-width="3"/><ellipse cx="321.5" cy="182.9" rx="19" ry="27" transform="rotate(30 321.5 182.9)" fill="#d8756c" stroke="#ffffff" stroke-opacity=".14" stroke-width="3"/><ellipse cx="310.0" cy="163.0" rx="19" ry="27" transform="rotate(90 310.0 163.0)" fill="#d8756c" stroke="#ffffff" stroke-opacity=".14" stroke-width="3"/><ellipse cx="321.5" cy="143.1" rx="19" ry="27" transform="rotate(150 321.5 143.1)" fill="#d8756c" stroke="#ffffff" stroke-opacity=".14" stroke-width="3"/><ellipse cx="344.5" cy="143.1" rx="19" ry="27" transform="rotate(210 344.5 143.1)" fill="#d8756c" stroke="#ffffff" stroke-opacity=".14" stroke-width="3"/><circle cx="333" cy="163" r="16" fill="#ecc471"/><circle cx="329" cy="158" r="4" fill="white" opacity=".3"/><ellipse cx="228.0" cy="220.0" rx="19" ry="27" transform="rotate(-90 228.0 220.0)" fill="#d8756c" stroke="#ffffff" stroke-opacity=".14" stroke-width="3"/><ellipse cx="216.5" cy="239.9" rx="19" ry="27" transform="rotate(-30 216.5 239.9)" fill="#d8756c" stroke="#ffffff" stroke-opacity=".14" stroke-width="3"/><ellipse cx="193.5" cy="239.9" rx="19" ry="27" transform="rotate(30 193.5 239.9)" fill="#d8756c" stroke="#ffffff" stroke-opacity=".14" stroke-width="3"/><ellipse cx="182.0" cy="220.0" rx="19" ry="27" transform="rotate(90 182.0 220.0)" fill="#d8756c" stroke="#ffffff" stroke-opacity=".14" stroke-width="3"/><ellipse cx="193.5" cy="200.1" rx="19" ry="27" transform="rotate(150 193.5 200.1)" fill="#d8756c" stroke="#ffffff" stroke-opacity=".14" stroke-width="3"/><ellipse cx="216.5" cy="200.1" rx="19" ry="27" transform="rotate(210 216.5 200.1)" fill="#d8756c" stroke="#ffffff" stroke-opacity=".14" stroke-width="3"/><circle cx="205" cy="220" r="16" fill="#ecc471"/><circle cx="201" cy="215" r="4" fill="white" opacity=".3"/><path d="M254 385 C150 321 160 415 252 393 C351 324 355 419 252 393 M248 393 L213 445 M255 395 L290 442" fill="none" stroke="#628a73" stroke-width="13" stroke-linecap="round"/><circle cx="251" cy="392" r="11" fill="#628a73"/></svg>