<svg xmlns="http://www.w3.org/2000/svg" viewBox="0 0 500 460"><defs><linearGradient id="bag" x1="0" y1="0" x2="1" y2="1"><stop stop-color="#b48aff"/><stop offset=".5" stop-color="#8d51e9"/><stop offset="1" stop-color="#5b26bf"/></linearGradient><linearGradient id="side" x1="0" y1="0" x2="1" y2="0"><stop stop-color="#5c2bb2"/><stop offset="1" stop-color="#3c178a"/></linearGradient><linearGradient id="leaf"><stop stop-color="#a5bc8b"/><stop offset="1" stop-color="#4d7756"/></linearGradient><filter id="shadow"><feGaussianBlur stdDeviation="13"/></filter></defs><ellipse cx="253" cy="393" rx="142" ry="21" fill="#603b93" opacity=".16" filter="url(#shadow)"/><circle cx="249" cy="229" r="162" fill="#ede7fb"/><path d="M350 350Q339 240 402 186Q440 251 350 350Z" fill="url(#leaf)"/><path d="M352 319Q334 226 316 213Q281 261 352 319Z" fill="#739a68"/><path d="M347 344Q359 254 424 257Q413 326 347 344Z" fill="#85a777"/><path d="M144 173L320 167L336 374L129 383Z" fill="url(#bag)"/><path d="M320 167L352 185L369 359L336 374Z" fill="url(#side)"/><path d="M144 173L174 188L352 185L320 167Z" fill="#c2a4fa"/><path d="M182 191V145C182 80 270 77 270 143V184" fill="none" stroke="#6130b4" stroke-width="9" stroke-linecap="round"/><path d="M207 187V135C207 89 290 91 290 143V185" fill="none" stroke="#7040c7" stroke-width="6" stroke-linecap="round"/><path d="M166 330L326 325L333 368L133 376Z" fill="#fff" opacity=".08"/><text x="230" y="290" text-anchor="middle" fill="#fff" font-family="Arial,sans-serif" font-weight="700" font-size="42" letter-spacing="-3">mimo</text><path d="M276 162L330 256" fill="none" stroke="#d6bcff" stroke-width="2"/><g transform="rotate(12 327 271)"><rect x="304" y="247" width="46" height="57" rx="7" fill="#fff9f3"/><path d="M317 270C310 260 320 253 327 263C334 253 344 260 337 270L327 280Z" fill="#a57add"/></g><circle cx="102" cy="226" r="10" fill="#d3bdf9"/><path d="M396 124v24m-12-12h24" stroke="#b491ec" stroke-width="4" stroke-linecap="round"/></svg>
